<svg xmlns="http://www.w3.org/2000/svg" version="1.1" xmlns:xlink="http://www.w3.org/1999/xlink" xmlns:svgjs="http://svgjs.com/svgjs" width="1920" height="1080" preserveAspectRatio="none" viewBox="0 0 1920 1080"><g mask="url(&quot;#SvgjsMask1011&quot;)" fill="none"><rect width="1920" height="1080" x="0" y="0" fill="#0e2a47"></rect><path d="M 0,139 C 76.8,177.6 230.4,354.2 384,332 C 537.6,309.8 614.4,-2.2 768,28 C 921.6,58.2 998.4,470.4 1152,483 C 1305.6,495.6 1382.4,91.6 1536,91 C 1689.6,90.4 1843.2,402.2 1920,480L1920 1080L0 1080z" fill="#184a7e"></path><path d="M 0,1012 C 128,952.8 384,712.4 640,716 C 896,719.6 1024,1038 1280,1030 C 1536,1022 1792,746.8 1920,676L1920 1080L0 1080z" fill="#2264ab"></path></g><defs><mask id="SvgjsMask1011"><rect width="1920" height="1080" fill="#ffffff"></rect></mask></defs></svg>